# xmcd
#
# Track frame offsets:
#	187
#	17095
#	35200
#	58287
#	87420
#	102747
#	115462
#	138517
#	159172
#	181590
#	198575
#	217505
#	239392
#	261675
#	285025
#
# Disc length: 4040 seconds
#
# Revision: 1
# Processed by: cddbd v1.5PL3 Copyright (c) Steve Scherf et al.
# Submitted via: CDex 1.50Beta5
#
DISCID=d90fc60f
DTITLE=三上博史 - ARC
DYEAR=1993
DGENRE=Rock
TTITLE0=KANZEN
TTITLE1=BONDAGE
TTITLE2=SOIL
TTITLE3=BETTY BLUE
TTITLE4=賜肉
TTITLE5=SEEKING A CLUE TO MY KINGDOM
TTITLE6=BEAT ME WITH YOUR BREATH
TTITLE7=SOMEWHERE IN TINE
TTITLE8=PRISONER
TTITLE9=HE LOVES YOU
TTITLE10=SANCTUARY
TTITLE11=夢 with You
TTITLE12=HANG OUT!
TTITLE13=OUT of FATE
TTITLE14=夢 with You
EXTD=
EXTT0=
EXTT1=
EXTT2=
EXTT3=
EXTT4=
EXTT5=
EXTT6=
EXTT7=
EXTT8=
EXTT9=
EXTT10=
EXTT11=
EXTT12=
EXTT13=
EXTT14=
PLAYORDER=
